<svg width="235" height="56" viewBox="0 0 235 56" fill="none" xmlns="http://www.w3.org/2000/svg">
<g clip-path="url(#clip0_9_220)">
<path d="M2.74048 27.1322H28.4751L50.1483 2.74048H2.74048V27.1322V40.9512L28.4751 52.5421L50.1483 41.5335L28.4751 27.1322" fill="black"/>
<path d="M2.74048 27.1322H28.4751L50.1483 2.74048H2.74048V27.1322ZM2.74048 27.1322V40.9512L28.4751 52.5421L50.1483 41.5335L28.4751 27.1322" stroke="#CCCCCC" stroke-width="7.5" stroke-miterlimit="10"/>
<path d="M50.1483 6.70337L32.4351 26.4226L50.1483 38.5589" fill="black"/>
</g>
<path d="M91.53 25.57H105.01V30.61H91.53V25.57ZM92.01 37.09H107.25V42.29H85.57V14.29H106.73V19.49H92.01V37.09ZM111.606 42.29V14.29H124.326C127.366 14.29 130.046 14.8767 132.366 16.05C134.686 17.1967 136.499 18.81 137.806 20.89C139.113 22.97 139.766 25.4367 139.766 28.29C139.766 31.1167 139.113 33.5834 137.806 35.69C136.499 37.77 134.686 39.3967 132.366 40.57C130.046 41.7167 127.366 42.29 124.326 42.29H111.606ZM118.086 36.97H124.006C125.873 36.97 127.486 36.6234 128.846 35.93C130.233 35.21 131.299 34.1967 132.046 32.89C132.819 31.5834 133.206 30.05 133.206 28.29C133.206 26.5034 132.819 24.97 132.046 23.69C131.299 22.3834 130.233 21.3834 128.846 20.69C127.486 19.97 125.873 19.61 124.006 19.61H118.086V36.97ZM143.853 42.29V14.29H149.213L161.133 34.05H158.293L170.013 14.29H175.333L175.413 42.29H169.333L169.293 23.61H170.413L161.053 39.33H158.133L148.573 23.61H149.933V42.29H143.853ZM187.216 25.57H200.696V30.61H187.216V25.57ZM187.696 37.09H202.936V42.29H181.256V14.29H202.416V19.49H187.696V37.09ZM207.292 42.29V14.29H219.412C221.919 14.29 224.079 14.7034 225.892 15.53C227.705 16.33 229.105 17.49 230.092 19.01C231.079 20.53 231.572 22.3434 231.572 24.45C231.572 26.53 231.079 28.33 230.092 29.85C229.105 31.3434 227.705 32.49 225.892 33.29C224.079 34.09 221.919 34.49 219.412 34.49H210.892L213.772 31.65V42.29H207.292ZM225.092 42.29L218.092 32.13H225.012L232.092 42.29H225.092ZM213.772 32.37L210.892 29.33H219.052C221.052 29.33 222.545 28.9034 223.532 28.05C224.519 27.17 225.012 25.97 225.012 24.45C225.012 22.9034 224.519 21.7034 223.532 20.85C222.545 19.9967 221.052 19.57 219.052 19.57H210.892L213.772 16.49V32.37Z" fill="white"/>
<defs>
<clipPath id="clip0_9_220">
<rect width="56.25" height="55.5799" fill="white"/>
</clipPath>
</defs>
</svg>
